<svg xmlns="http://www.w3.org/2000/svg" width="42.885" height="49.679" viewBox="0 0 42.885 49.679">
  <path id="Icon_ionic-ios-pizza" data-name="Icon ionic-ios-pizza" d="M47.228,10.424c-.3-.944-1.586-1.811-2.792-2.419C41.421,6.5,36.228,4.5,26.021,4.5,15.524,4.5,10.666,6.375,7.6,8.005c-1.374.737-2.7,1.617-2.982,2.522a3.939,3.939,0,0,0,.458,2.82l.168.388A3.379,3.379,0,0,0,7.785,15.52L25.418,53.778a.663.663,0,0,0,.592.4h0a.663.663,0,0,0,.592-.4L44.2,15.61a3.038,3.038,0,0,0,2.58-1.85A4.7,4.7,0,0,0,47.228,10.424Zm-29.7,14.589a4.588,4.588,0,0,1-.57,1.229.416.416,0,0,1-.748-.078c-.983-2.147-1.932-4.191-2.769-6.014a.528.528,0,0,1,.38-.763h.112a3.618,3.618,0,0,1,1.217.22,3.96,3.96,0,0,1,2.189,2.147A4.806,4.806,0,0,1,17.523,25.013Zm13.021,12.61a.435.435,0,0,1-.436.272,4.115,4.115,0,0,1-3.373-4.242,4.052,4.052,0,0,1,3.786-4.268,3.556,3.556,0,0,1,2.825,1.423.573.573,0,0,1,.056.582Zm3.931-22.867a3.371,3.371,0,0,1-2.178.815,3.893,3.893,0,0,1-.547-.039,3.562,3.562,0,0,1-2.4-1.617,4.117,4.117,0,0,1-.514-1.086.5.5,0,0,1,.447-.685,38.726,38.726,0,0,1,5.74.763.578.578,0,0,1,.3.867A4.182,4.182,0,0,1,34.475,14.756Z" transform="translate(-4.497 -4.5)" fill="#0a1f30"/>
</svg>
