<svg xmlns="http://www.w3.org/2000/svg" width="149.942" height="149.942" viewBox="0 0 149.942 149.942">
  <g id="Icon_ionic-ios-checkmark-circle-outline" data-name="Icon ionic-ios-checkmark-circle-outline" transform="translate(-3.375 -3.375)">
    <path id="Path_18" data-name="Path 18" d="M87.64,19.163,81.3,12.639a1.364,1.364,0,0,0-1.009-.433h0a1.309,1.309,0,0,0-1.009.433L35.3,56.936l-16-16a1.394,1.394,0,0,0-2.018,0l-6.416,6.416a1.436,1.436,0,0,0,0,2.054L31.051,69.588a6.383,6.383,0,0,0,4.217,2.054A6.689,6.689,0,0,0,39.45,69.66h.036l48.19-48.443A1.541,1.541,0,0,0,87.64,19.163Z" transform="translate(29.128 36.44)" fill="#ffda5d"/>
    <path id="Path_19" data-name="Path 19" d="M78.346,13.467a64.889,64.889,0,0,1,45.884,110.762A64.889,64.889,0,0,1,32.462,32.462a64.449,64.449,0,0,1,45.884-19m0-10.092a74.971,74.971,0,1,0,74.971,74.971A74.959,74.959,0,0,0,78.346,3.375Z" fill="#ffda5d"/>
  </g>
</svg>
