<svg xmlns="http://www.w3.org/2000/svg" width="58.465" height="45.473" viewBox="0 0 58.465 45.473">
  <path id="Icon_awesome-shopping-basket" data-name="Icon awesome-shopping-basket" d="M58.465,20.926v1.624a2.436,2.436,0,0,1-2.436,2.436h-.812L52.567,43.54a4.872,4.872,0,0,1-4.823,4.183H10.722A4.872,4.872,0,0,1,5.9,43.54L3.248,24.987H2.436A2.436,2.436,0,0,1,0,22.551V20.926A2.436,2.436,0,0,1,2.436,18.49H9.271L20.11,3.588a3.248,3.248,0,0,1,5.254,3.821L17.3,18.49H41.161L33.1,7.409a3.248,3.248,0,0,1,5.254-3.821l10.838,14.9h6.835A2.436,2.436,0,0,1,58.465,20.926Zm-26.8,17.864V27.423a2.436,2.436,0,1,0-4.872,0V38.791a2.436,2.436,0,0,0,4.872,0Zm11.368,0V27.423a2.436,2.436,0,1,0-4.872,0V38.791a2.436,2.436,0,1,0,4.872,0Zm-22.736,0V27.423a2.436,2.436,0,1,0-4.872,0V38.791a2.436,2.436,0,1,0,4.872,0Z" transform="translate(0 -2.25)" fill="#fff"/>
</svg>
