<svg xmlns="http://www.w3.org/2000/svg" width="33.22" height="33.22" viewBox="0 0 33.22 33.22">
  <g id="Icon_ionic-ios-close-circle-outline" data-name="Icon ionic-ios-close-circle-outline" transform="translate(-3.375 -3.375)">
    <path id="Path_16" data-name="Path 16" d="M24.779,22.975,20.57,18.766l4.208-4.208a1.276,1.276,0,1,0-1.8-1.8l-4.208,4.208-4.208-4.208a1.276,1.276,0,1,0-1.8,1.8l4.208,4.208-4.208,4.208a1.234,1.234,0,0,0,0,1.8,1.268,1.268,0,0,0,1.8,0l4.208-4.208,4.208,4.208a1.282,1.282,0,0,0,1.8,0A1.268,1.268,0,0,0,24.779,22.975Z" transform="translate(1.219 1.219)" fill="#fff"/>
    <path id="Path_17" data-name="Path 17" d="M19.985,5.611A14.368,14.368,0,1,1,9.819,9.819,14.279,14.279,0,0,1,19.985,5.611m0-2.236a16.61,16.61,0,1,0,16.61,16.61,16.607,16.607,0,0,0-16.61-16.61Z" fill="#fff"/>
  </g>
</svg>
