<svg xmlns="http://www.w3.org/2000/svg" width="36.723" height="53.555" viewBox="0 0 36.723 53.555">
  <g id="Icon_ionic-ios-ice-cream" data-name="Icon ionic-ios-ice-cream" transform="translate(-7.861 -3.234)">
    <path id="Path_4" data-name="Path 4" d="M15.53,28.7l.612,1.887a.263.263,0,0,0,.383.14l.867-.536a.513.513,0,0,0,0-.867l-1.466-.918A.263.263,0,0,0,15.53,28.7Z" transform="translate(6.23 20.448)" fill="#0a1f30"/>
    <path id="Path_5" data-name="Path 5" d="M20.831,30.621l.625-1.938a.256.256,0,0,0-.383-.293l-1.517.944a.513.513,0,0,0,0,.867l.893.561A.26.26,0,0,0,20.831,30.621Z" transform="translate(9.319 20.43)" fill="#0a1f30"/>
    <path id="Path_6" data-name="Path 6" d="M14.235,17.082a5.984,5.984,0,0,1-2,1.084.251.251,0,0,0-.153.319l1.186,3.685.485,1.5a.263.263,0,0,0,.383.14l.893-.548L19.692,20.4a.51.51,0,0,0-.153-.931,10.334,10.334,0,0,1-4.616-2.359A.525.525,0,0,0,14.235,17.082Z" transform="translate(3.419 11.17)" fill="#0a1f30"/>
    <path id="Path_7" data-name="Path 7" d="M13.657,21.887l-.255.153,1.862,5.776a.263.263,0,0,0,.383.14L19.114,25.8a.513.513,0,0,0,0-.867L14.2,21.887A.529.529,0,0,0,13.657,21.887Z" transform="translate(4.507 15.112)" fill="#0a1f30"/>
    <path id="Path_8" data-name="Path 8" d="M20.833,24.566a.507.507,0,0,0-.536,0l-5.343,3.264-.013.013a.265.265,0,0,0,0,.408l.089.064L20.3,31.541a.507.507,0,0,0,.536,0L26.15,28.29l.051-.038a.239.239,0,0,0,0-.383h0Z" transform="translate(5.683 17.291)" fill="#0a1f30"/>
    <path id="Path_9" data-name="Path 9" d="M25.614,22.256,20.7,19.209a.507.507,0,0,0-.536,0L15.26,22.256a.513.513,0,0,0,0,.867l4.909,3.048a.507.507,0,0,0,.536,0l4.909-3.048A.513.513,0,0,0,25.614,22.256Z" transform="translate(5.824 12.933)" fill="#0a1f30"/>
    <path id="Path_10" data-name="Path 10" d="M24.614,17.1A10.533,10.533,0,0,1,20,19.454a.51.51,0,0,0-.153.931l4.667,2.869.944.587a.255.255,0,0,0,.383-.14l.51-1.581,1.25-3.864a6.386,6.386,0,0,1-2.3-1.173A.539.539,0,0,0,24.614,17.1Z" transform="translate(9.553 11.17)" fill="#0a1f30"/>
    <path id="Path_11" data-name="Path 11" d="M16.353,32.073l.2.638s.956,2.423,2.805,2.423c1.913,0,2.831-2.423,2.831-2.423l.2-.612a.493.493,0,0,0-.217-.587l-2.55-1.581a.507.507,0,0,0-.536,0L16.57,31.5A.465.465,0,0,0,16.353,32.073Z" transform="translate(6.886 21.656)" fill="#0a1f30"/>
    <path id="Path_12" data-name="Path 12" d="M19.566,25.8l3.507,2.18a.255.255,0,0,0,.383-.14l1.811-5.585a.26.26,0,0,0-.1-.293l-.128-.077a.507.507,0,0,0-.536,0l-4.909,3.048A.493.493,0,0,0,19.566,25.8Z" transform="translate(9.322 15.112)" fill="#0a1f30"/>
    <path id="Path_13" data-name="Path 13" d="M41.562,18.816a7.645,7.645,0,0,1-2.3,1.339.251.251,0,0,1-.293-.383l.51-.727a5.165,5.165,0,0,0,.867-3.8,14.279,14.279,0,0,0-28.206.064,5.146,5.146,0,0,0,.88,3.8l.51.714a.254.254,0,0,1-.306.383,7.647,7.647,0,0,1-2.563-1.632A.521.521,0,0,0,10,18.523a5.093,5.093,0,0,0,2.958,9.245A8.051,8.051,0,0,0,17.628,26.2a.507.507,0,0,1,.676.013,11.715,11.715,0,0,0,7.918,2.576,11.692,11.692,0,0,0,7.918-2.576.522.522,0,0,1,.676-.013,8.02,8.02,0,0,0,4.667,1.568,5.113,5.113,0,0,0,3.379-8.939A.974.974,0,0,0,41.562,18.816Z" transform="translate(0 0)" fill="#0a1f30"/>
  </g>
</svg>
