<svg xmlns="http://www.w3.org/2000/svg" width="41.284" height="39.008" viewBox="0 0 41.284 39.008">
  <path id="Icon_awesome-hamburger" data-name="Icon awesome-hamburger" d="M37.414,21.754H3.87A4.034,4.034,0,0,0,0,25.934a4.034,4.034,0,0,0,3.87,4.179H37.414a4.034,4.034,0,0,0,3.87-4.179A4.034,4.034,0,0,0,37.414,21.754ZM38.7,32.9H2.58a1.345,1.345,0,0,0-1.29,1.393v1.393a5.378,5.378,0,0,0,5.16,5.573H34.833a5.378,5.378,0,0,0,5.16-5.573V34.293A1.345,1.345,0,0,0,38.7,32.9ZM4.728,18.968H36.556c2.787,0,4.4-3.822,2.808-6.607C36.123,6.708,28.991,2.259,20.642,2.25,12.293,2.259,5.16,6.708,1.921,12.36.323,15.145,1.941,18.968,4.728,18.968ZM30.963,9.216a1.4,1.4,0,1,1-1.29,1.393A1.345,1.345,0,0,1,30.963,9.216ZM20.642,6.429a1.345,1.345,0,0,1,1.29,1.393,1.294,1.294,0,1,1-2.58,0A1.345,1.345,0,0,1,20.642,6.429ZM10.321,9.216a1.4,1.4,0,0,1,0,2.786,1.4,1.4,0,0,1,0-2.786Z" transform="translate(0 -2.25)" fill="#0a1f30"/>
</svg>
