<svg xmlns="http://www.w3.org/2000/svg" width="24.685" height="50.795" viewBox="0 0 24.685 50.795">
  <path id="Icon_ionic-ios-wine" data-name="Icon ionic-ios-wine" d="M31.682,4.045a1.623,1.623,0,0,0-1.531-1.092H15.909a1.638,1.638,0,0,0-1.543,1.092c-1.1,2.967-3.679,10.337-3.679,14.811v.57a11.111,11.111,0,0,0,3.37,8.842,29.5,29.5,0,0,0,2.67,2.314c2.267,1.816,4.6,3.691,4.6,5.958V50.188a.238.238,0,0,1-.237.237H14.319a1.662,1.662,0,1,0,0,3.323H31.741a1.662,1.662,0,1,0,0-3.323H24.965a.238.238,0,0,1-.237-.237V36.539c0-2.267,2.338-4.142,4.6-5.958A31.215,31.215,0,0,0,32,28.267a11.111,11.111,0,0,0,3.37-8.842v-.57C35.373,14.406,32.8,7.012,31.682,4.045Zm-.166,12.117a.22.22,0,0,1-.19.083H14.734a.315.315,0,0,1-.19-.083.232.232,0,0,1-.047-.2,88.738,88.738,0,0,1,2.563-9.518.255.255,0,0,1,.225-.166H28.774A.231.231,0,0,1,29,6.442a95.547,95.547,0,0,1,2.563,9.518A.244.244,0,0,1,31.516,16.162Z" transform="translate(-10.688 -2.953)" fill="#0a1f30"/>
</svg>
